<?xml version="1.0" encoding="UTF-8" standalone="no"?>
<!-- Created with Inkscape (http://www.inkscape.org/) -->

<svg
   xmlns:dc="http://purl.org/dc/elements/1.1/"
   xmlns:cc="http://creativecommons.org/ns#"
   xmlns:rdf="http://www.w3.org/1999/02/22-rdf-syntax-ns#"
   xmlns:svg="http://www.w3.org/2000/svg"
   xmlns="http://www.w3.org/2000/svg"
   xmlns:sodipodi="http://sodipodi.sourceforge.net/DTD/sodipodi-0.dtd"
   xmlns:inkscape="http://www.inkscape.org/namespaces/inkscape"
   width="210mm"
   height="297mm"
   viewBox="0 0 210 297"
   version="1.1"
   id="svg5127"
   inkscape:version="0.92.2 (5c3e80d, 2017-08-06)"
   sodipodi:docname="bug.svg">
  <defs
     id="defs5121">
    <inkscape:path-effect
       effect="ruler"
       id="path-effect5990"
       is_visible="true"
       unit="px"
       mark_distance="19.4"
       mark_length="16"
       minor_mark_length="7"
       major_mark_steps="8"
       shift="2"
       offset="0"
       mark_dir="both"
       border_marks="none" />
    <inkscape:path-effect
       effect="simplify"
       id="path-effect5988"
       is_visible="true"
       steps="7"
       threshold="0.0027"
       smooth_angles="210"
       helper_size="115"
       simplify_individual_paths="false"
       simplify_just_coalesce="false" />
    <inkscape:path-effect
       effect="simplify"
       id="path-effect5986"
       is_visible="true"
       steps="1"
       threshold="0.0021"
       smooth_angles="70"
       helper_size="15"
       simplify_individual_paths="false"
       simplify_just_coalesce="false" />
    <inkscape:path-effect
       effect="simplify"
       id="path-effect5984"
       is_visible="true"
       steps="1"
       threshold="0.002"
       smooth_angles="70"
       helper_size="5"
       simplify_individual_paths="false"
       simplify_just_coalesce="false" />
    <inkscape:path-effect
       effect="simplify"
       id="path-effect5982"
       is_visible="true"
       steps="1"
       threshold="0.002"
       smooth_angles="70"
       helper_size="5"
       simplify_individual_paths="false"
       simplify_just_coalesce="false" />
    <inkscape:path-effect
       effect="simplify"
       id="path-effect5980"
       is_visible="true"
       steps="8"
       threshold="0.002"
       smooth_angles="50"
       helper_size="5"
       simplify_individual_paths="false"
       simplify_just_coalesce="false" />
  </defs>
  <sodipodi:namedview
     id="base"
     pagecolor="#000000"
     bordercolor="#666666"
     borderopacity="1.0"
     inkscape:pageopacity="0"
     inkscape:pageshadow="2"
     inkscape:zoom="0.7"
     inkscape:cx="202.82713"
     inkscape:cy="850.46782"
     inkscape:document-units="mm"
     inkscape:current-layer="layer1"
     showgrid="false"
     inkscape:window-width="1317"
     inkscape:window-height="713"
     inkscape:window-x="0"
     inkscape:window-y="27"
     inkscape:window-maximized="1">
    <inkscape:grid
       type="xygrid"
       id="grid5699" />
  </sodipodi:namedview>
  <metadata
     id="metadata5124">
    <rdf:RDF>
      <cc:Work
         rdf:about="">
        <dc:format>image/svg+xml</dc:format>
        <dc:type
           rdf:resource="http://purl.org/dc/dcmitype/StillImage" />
        <dc:title></dc:title>
      </cc:Work>
    </rdf:RDF>
  </metadata>
  <g
     inkscape:label="Layer 1"
     inkscape:groupmode="layer"
     id="layer1">
    <path
       style="opacity:1;fill:#ff0000;fill-opacity:0.98930485;stroke:#aa0000;stroke-width:2.01999998;stroke-miterlimit:4;stroke-dasharray:none;stroke-opacity:1"
       d="m 64.144686,18.237883 59.066564,0.26727 c 15.25078,0.06901 21.86757,21.245302 16.57071,35.546846 l -8.01809,21.648839 C 126.467,90.002383 119.48605,103.2296 104.23511,103.2296 H 82.051744 c -15.250933,0 -20.923406,-13.782479 -27.52876,-27.528762 L 44.634011,55.121077 C 38.028658,41.374795 48.893909,18.168875 64.144686,18.237883 Z"
       id="rect5131"
       inkscape:connector-curvature="0"
       sodipodi:nodetypes="sssssssss" />
    <path
       style="fill:#aa4400;stroke:#803300;stroke-width:1;stroke-linecap:butt;stroke-linejoin:miter;stroke-miterlimit:4;stroke-dasharray:none;stroke-opacity:1"
       d="m 47.573975,61.268276 c -4.810851,2.138156 -12.76774,1.420031 -14.432553,6.414468 -2.138157,6.414468 -4.276314,12.828937 -6.414471,19.243405 2.405426,0 4.810853,0 7.216279,0 1.314503,-4.905794 -0.599322,-12.446388 3.94351,-14.717381 3.985057,-1.992157 7.970113,-3.984315 11.95517,-5.976472 -0.755978,-1.654673 -1.511957,-3.309347 -2.267935,-4.96402 z"
       id="path5679"
       inkscape:connector-curvature="0"
       sodipodi:nodetypes="ccccccc"
       inkscape:path-effect="#path-effect5986"
       inkscape:original-d="M 47.573975,61.268276 33.141422,67.682744 26.726951,86.926149 H 33.94323 L 37.88674,72.208768 49.84191,66.232296 Z" />
    <path
       style="opacity:1;fill:#ffffff;fill-opacity:0.99786091;stroke:#000000;stroke-width:7.55905533;stroke-miterlimit:4;stroke-dasharray:none;stroke-opacity:1"
       d="M 397.85742 96.181641 A 72.767195 72.767195 0 0 0 335.91602 130.93359 A 60 60 0 0 0 291.42773 111.0918 A 60 60 0 0 0 231.42773 171.0918 A 60 60 0 0 0 291.42773 231.0918 A 60 60 0 0 0 337.50586 209.49609 A 72.767195 72.767195 0 0 0 397.85742 241.71484 A 72.767195 72.767195 0 0 0 470.625 168.94922 A 72.767195 72.767195 0 0 0 397.85742 96.181641 z "
       id="path5701"
       transform="scale(0.26458333)" />
    <circle
       style="opacity:1;fill:#000000;fill-opacity:1;stroke:#000000;stroke-width:2;stroke-miterlimit:4;stroke-dasharray:none;stroke-opacity:1"
       id="path5872"
       cx="74.083336"
       cy="43"
       r="5.2916665" />
    <circle
       style="opacity:1;fill:#000000;fill-opacity:0.98930485;stroke:#000000;stroke-width:2;stroke-miterlimit:4;stroke-dasharray:none;stroke-opacity:1"
       id="path5874"
       cx="103.56547"
       cy="41.86607"
       r="5.2916665" />
    <path
       style="fill:#aa4400;stroke:#803300;stroke-width:1;stroke-linecap:butt;stroke-linejoin:miter;stroke-miterlimit:4;stroke-dasharray:none;stroke-opacity:1"
       d="m 57.997486,84.78799 c -4.810851,2.138157 -12.76774,1.420034 -14.432553,6.414471 -2.138157,6.41447 -4.276314,12.828939 -6.414471,19.243409 2.405427,0 4.810853,0 7.21628,0 1.314503,-4.9058 -0.626627,-12.501845 3.943509,-14.717389 4.030887,-1.954123 8.061774,-3.908247 12.092661,-5.86237 -0.801809,-1.692707 -1.603617,-3.385414 -2.405426,-5.078121 z"
       id="path5679-3"
       inkscape:connector-curvature="0"
       sodipodi:nodetypes="ccccccc"
       inkscape:path-effect="#path-effect5984"
       inkscape:original-d="m 57.997486,84.78799 -14.432553,6.414471 -6.414471,19.243409 h 7.21628 l 3.943509,-14.717389 12.092661,-5.86237 z" />
    <path
       style="fill:#aa4400;stroke:#803300;stroke-width:1;stroke-linecap:butt;stroke-linejoin:miter;stroke-miterlimit:4;stroke-dasharray:none;stroke-opacity:1"
       d="m 138.96529,58.674524 c 4.81085,2.138156 12.76774,1.420033 14.43255,6.414468 2.13816,6.414468 4.27632,12.828935 6.41448,19.243403 -2.40543,0 -4.81085,0 -7.21628,0 -1.3145,-4.905793 0.59932,-12.446388 -3.94351,-14.717379 -3.98506,-1.992157 -7.97011,-3.984315 -11.95517,-5.976472 0.75598,-1.654673 1.51195,-3.309347 2.26793,-4.96402 z"
       id="path5679-5"
       inkscape:connector-curvature="0"
       sodipodi:nodetypes="ccccccc"
       inkscape:path-effect="#path-effect5982"
       inkscape:original-d="m 138.96529,58.674524 14.43255,6.414468 6.41448,19.243403 h -7.21628 l -3.94351,-14.717379 -11.95517,-5.976472 z" />
    <path
       style="fill:#aa4400;stroke:#803300;stroke-width:1;stroke-linecap:butt;stroke-linejoin:miter;stroke-miterlimit:4;stroke-dasharray:none;stroke-opacity:1"
       d="m 128.54178,82.194235 c 4.81085,2.138157 12.76774,1.420035 14.43255,6.41447 2.13816,6.414468 4.27631,12.828935 6.41447,19.243405 -2.40543,0 -4.81085,0 -7.21628,0 -1.3145,-4.9058 0.62663,-12.501844 -3.9435,-14.717385 -4.03089,-1.954123 -8.06178,-3.908247 -12.09267,-5.86237 0.80181,-1.692707 1.60362,-3.385413 2.40543,-5.07812 z"
       id="path5679-3-6"
       inkscape:connector-curvature="0"
       sodipodi:nodetypes="ccccccc"
       inkscape:path-effect="#path-effect5980"
       inkscape:original-d="m 128.54178,82.194235 14.43255,6.41447 6.41447,19.243405 h -7.21628 l -3.9435,-14.717385 -12.09267,-5.86237 z" />
    <path
       style="fill:#ffffff;fill-opacity:0.98930485;stroke:#000000;stroke-width:2;stroke-linecap:butt;stroke-linejoin:miter;stroke-miterlimit:4;stroke-dasharray:none;stroke-opacity:1"
       d="M 75.637277,92.538812 H 109.5805 v -18.17433 l -34.373163,9.210265 z"
       id="path5974"
       inkscape:connector-curvature="0" />
  </g>
</svg>
