<?xml version="1.0" encoding="UTF-8" standalone="no"?>
<!-- Created with Inkscape (http://www.inkscape.org/) -->

<svg
   xmlns:dc="http://purl.org/dc/elements/1.1/"
   xmlns:cc="http://creativecommons.org/ns#"
   xmlns:rdf="http://www.w3.org/1999/02/22-rdf-syntax-ns#"
   xmlns:svg="http://www.w3.org/2000/svg"
   xmlns="http://www.w3.org/2000/svg"
   xmlns:sodipodi="http://sodipodi.sourceforge.net/DTD/sodipodi-0.dtd"
   xmlns:inkscape="http://www.inkscape.org/namespaces/inkscape"
   width="210mm"
   height="297mm"
   viewBox="0 0 210 297"
   version="1.1"
   id="svg8"
   sodipodi:docname="coffee.svg"
   inkscape:version="0.92.2 (5c3e80d, 2017-08-06)">
  <defs
     id="defs2" />
  <sodipodi:namedview
     id="base"
     pagecolor="#ffffff"
     bordercolor="#666666"
     borderopacity="1.0"
     inkscape:pageopacity="0.0"
     inkscape:pageshadow="2"
     inkscape:zoom="0.98994949"
     inkscape:cx="362.61614"
     inkscape:cy="748.27868"
     inkscape:document-units="mm"
     inkscape:current-layer="layer1"
     showgrid="false"
     inkscape:window-width="1317"
     inkscape:window-height="713"
     inkscape:window-x="0"
     inkscape:window-y="27"
     inkscape:window-maximized="1" />
  <metadata
     id="metadata5">
    <rdf:RDF>
      <cc:Work
         rdf:about="">
        <dc:format>image/svg+xml</dc:format>
        <dc:type
           rdf:resource="http://purl.org/dc/dcmitype/StillImage" />
      </cc:Work>
    </rdf:RDF>
  </metadata>
  <g
     inkscape:label="Layer 1"
     inkscape:groupmode="layer"
     id="layer1">
    <path
       style="color:#000000;font-style:normal;font-variant:normal;font-weight:normal;font-stretch:normal;font-size:medium;line-height:normal;font-family:sans-serif;font-variant-ligatures:normal;font-variant-position:normal;font-variant-caps:normal;font-variant-numeric:normal;font-variant-alternates:normal;font-feature-settings:normal;text-indent:0;text-align:start;text-decoration:none;text-decoration-line:none;text-decoration-style:solid;text-decoration-color:#000000;letter-spacing:normal;word-spacing:normal;text-transform:none;writing-mode:lr-tb;direction:ltr;text-orientation:mixed;dominant-baseline:auto;baseline-shift:baseline;text-anchor:start;white-space:normal;shape-padding:0;clip-rule:nonzero;display:inline;overflow:visible;visibility:visible;opacity:1;isolation:auto;mix-blend-mode:normal;color-interpolation:sRGB;color-interpolation-filters:linearRGB;solid-color:#000000;solid-opacity:1;vector-effect:none;fill:#ff0000;fill-opacity:0.98930484;fill-rule:nonzero;stroke:#000000;stroke-width:2;stroke-linecap:butt;stroke-linejoin:miter;stroke-miterlimit:4;stroke-dasharray:none;stroke-dashoffset:0;stroke-opacity:1;color-rendering:auto;image-rendering:auto;shape-rendering:auto;text-rendering:auto;enable-background:accumulate"
       d="m 57.597656,66.878906 c -7e-6,5.67e-4 8e-6,0.0014 0,0.002 v 75.371094 0.002 c 0.02127,0.84641 0.394738,1.63238 1.058594,2.34765 0.663856,0.71527 1.617284,1.36566 2.818359,1.95899 2.402152,1.18666 5.797034,2.14889 9.857422,2.90234 8.120776,1.50691 18.901692,2.17628 29.664059,2.08399 10.76237,-0.0923 21.50561,-0.94708 29.54688,-2.5 4.02063,-0.77647 7.36461,-1.72708 9.70703,-2.84961 1.17121,-0.56127 2.09239,-1.16469 2.72266,-1.82032 0.62978,-0.65512 0.97055,-1.36872 0.95117,-2.12695 v -0.002 -75.367194 h -0.26563 c -0.004,0.697502 -0.32347,1.35002 -0.9414,1.972657 -0.61794,0.622637 -1.53338,1.207747 -2.70508,1.746093 -2.3434,1.076694 -5.70503,1.968264 -9.74024,2.671875 -8.07041,1.407222 -18.83504,2.066457 -29.59179,2.013672 -10.756758,-0.05282 -21.509025,-0.81829 -29.552737,-2.25199 -4.021856,-0.71685 -7.367805,-1.601653 -9.691406,-2.642578 -1.161801,-0.520462 -2.066222,-1.081229 -2.671875,-1.669922 -0.605654,-0.588693 -0.909138,-1.196297 -0.900391,-1.837891 v -0.002 z m 0.265625,0.548828 c 0.131291,0.512681 0.249761,1.030418 0.716797,1.484375 0.639791,0.621874 1.568604,1.192338 2.748047,1.720703 2.358885,1.056732 5.720006,1.943113 9.753906,2.66211 8.0678,1.437993 18.82729,2.201065 29.595699,2.253906 10.76842,0.05284 21.54282,-0.60592 29.63868,-2.017578 4.04792,-0.705829 7.42648,-1.597826 9.80664,-2.691406 1.19007,-0.54679 2.13174,-1.14436 2.7832,-1.800782 0.48162,-0.485287 0.61421,-1.04216 0.75195,-1.595703 v 74.808591 0.002 c 0.0178,0.67631 -0.27796,1.31839 -0.875,1.93945 -0.59704,0.62106 -1.49337,1.21303 -2.64648,1.76562 -2.30623,1.10519 -5.63656,2.05411 -9.64453,2.82813 -8.01595,1.54804 -18.7482,2.40391 -29.49805,2.49609 -10.749845,0.0922 -21.51997,-0.58021 -29.613281,-2.08203 -4.046655,-0.75091 -7.424915,-1.70906 -9.789062,-2.87695 -1.182074,-0.58395 -2.108153,-1.22131 -2.740235,-1.90234 -0.63161,-0.68053 -0.968389,-1.39928 -0.988281,-2.17188 v -0.002 z"
       id="path3777"
       inkscape:connector-curvature="0" />
    <path
       style="color:#000000;font-style:normal;font-variant:normal;font-weight:normal;font-stretch:normal;font-size:medium;line-height:normal;font-family:sans-serif;font-variant-ligatures:normal;font-variant-position:normal;font-variant-caps:normal;font-variant-numeric:normal;font-variant-alternates:normal;font-feature-settings:normal;text-indent:0;text-align:start;text-decoration:none;text-decoration-line:none;text-decoration-style:solid;text-decoration-color:#000000;letter-spacing:normal;word-spacing:normal;text-transform:none;writing-mode:lr-tb;direction:ltr;text-orientation:mixed;dominant-baseline:auto;baseline-shift:baseline;text-anchor:start;white-space:normal;shape-padding:0;clip-rule:nonzero;display:inline;overflow:visible;visibility:visible;opacity:1;isolation:auto;mix-blend-mode:normal;color-interpolation:sRGB;color-interpolation-filters:linearRGB;solid-color:#000000;solid-opacity:1;vector-effect:none;fill:#ff0000;fill-opacity:0.98930484;fill-rule:nonzero;stroke:#000000;stroke-width:2;stroke-linecap:butt;stroke-linejoin:miter;stroke-miterlimit:4;stroke-dasharray:none;stroke-dashoffset:0;stroke-opacity:1;color-rendering:auto;image-rendering:auto;shape-rendering:auto;text-rendering:auto;enable-background:accumulate"
       d="m 100.5918,59.007812 c -10.779428,-0.06498 -21.54354,0.5153 -29.599612,1.791016 -4.028037,0.637858 -7.378142,1.447737 -9.722657,2.445313 -1.172257,0.498788 -2.094065,1.043921 -2.724609,1.646484 -0.630544,0.602563 -0.971052,1.27282 -0.947266,1.994141 l 0.265625,-0.0078 c -0.0209,-0.633707 0.270471,-1.226552 0.865235,-1.794922 0.594763,-0.56837 1.490353,-1.102654 2.644531,-1.59375 2.308355,-0.98219 5.643992,-1.791756 9.660156,-2.427734 8.032329,-1.271957 18.789727,-1.85203 29.558597,-1.787109 10.76886,0.06492 21.55289,0.773552 29.64258,2.078124 4.04484,0.652287 7.41522,1.455802 9.76757,2.394532 1.17618,0.469365 2.09698,0.973484 2.7168,1.501953 0.61982,0.528468 0.93412,1.070743 0.93945,1.634765 l 0.26563,-0.0039 c -0.006,-0.661099 -0.37848,-1.273802 -1.03321,-1.832031 -0.65472,-0.558229 -1.5966,-1.071011 -2.78906,-1.546875 -2.38492,-0.951727 -5.77054,-1.754177 -9.82617,-2.408203 -8.11126,-1.308053 -18.90417,-2.019 -29.68359,-2.083985 z"
       id="path3779"
       inkscape:connector-curvature="0" />
    <path
       style="color:#000000;font-style:normal;font-variant:normal;font-weight:normal;font-stretch:normal;font-size:medium;line-height:normal;font-family:sans-serif;font-variant-ligatures:normal;font-variant-position:normal;font-variant-caps:normal;font-variant-numeric:normal;font-variant-alternates:normal;font-feature-settings:normal;text-indent:0;text-align:start;text-decoration:none;text-decoration-line:none;text-decoration-style:solid;text-decoration-color:#000000;letter-spacing:normal;word-spacing:normal;text-transform:none;writing-mode:lr-tb;direction:ltr;text-orientation:mixed;dominant-baseline:auto;baseline-shift:baseline;text-anchor:start;white-space:normal;shape-padding:0;clip-rule:nonzero;display:inline;overflow:visible;visibility:visible;opacity:1;isolation:auto;mix-blend-mode:normal;color-interpolation:sRGB;color-interpolation-filters:linearRGB;solid-color:#000000;solid-opacity:1;vector-effect:none;fill:#ff0000;fill-opacity:0.98930484;fill-rule:nonzero;stroke:#000000;stroke-width:2;stroke-linecap:butt;stroke-linejoin:miter;stroke-miterlimit:4;stroke-dasharray:none;stroke-dashoffset:0;stroke-opacity:1;color-rendering:auto;image-rendering:auto;shape-rendering:auto;text-rendering:auto;enable-background:accumulate"
       d="m 144.06445,77.707031 -0.0117,0.263672 c 5.63967,0.249038 13.59103,1.890673 20.10157,5.732422 6.51054,3.841749 11.57961,9.863196 11.51758,18.917965 v 0.002 0.002 c 0.11775,9.16224 -4.5383,15.60116 -10.90821,19.90234 -6.36991,4.30119 -14.4555,6.44855 -21.14648,6.98047 l 0.0195,0.26367 c 6.73019,-0.53503 14.85139,-2.68899 21.27344,-7.02539 6.42157,-4.33607 11.14359,-10.8705 11.02539,-20.12304 0.0627,-9.154503 -5.08324,-15.273636 -11.64649,-19.146488 -6.56324,-3.872851 -14.5448,-5.51872 -20.22461,-5.769531 z"
       id="path3781"
       inkscape:connector-curvature="0" />
    <path
       style="color:#000000;font-style:normal;font-variant:normal;font-weight:normal;font-stretch:normal;font-size:medium;line-height:normal;font-family:sans-serif;font-variant-ligatures:normal;font-variant-position:normal;font-variant-caps:normal;font-variant-numeric:normal;font-variant-alternates:normal;font-feature-settings:normal;text-indent:0;text-align:start;text-decoration:none;text-decoration-line:none;text-decoration-style:solid;text-decoration-color:#000000;letter-spacing:normal;word-spacing:normal;text-transform:none;writing-mode:lr-tb;direction:ltr;text-orientation:mixed;dominant-baseline:auto;baseline-shift:baseline;text-anchor:start;white-space:normal;shape-padding:0;clip-rule:nonzero;display:inline;overflow:visible;visibility:visible;opacity:1;isolation:auto;mix-blend-mode:normal;color-interpolation:sRGB;color-interpolation-filters:linearRGB;solid-color:#000000;solid-opacity:1;vector-effect:none;fill:#ff0000;fill-opacity:0.98930484;fill-rule:nonzero;stroke:#000000;stroke-width:2;stroke-linecap:butt;stroke-linejoin:miter;stroke-miterlimit:4;stroke-dasharray:none;stroke-dashoffset:0;stroke-opacity:1;color-rendering:auto;image-rendering:auto;shape-rendering:auto;text-rendering:auto;enable-background:accumulate"
       d="m 143.51953,86.792969 0.01,0.265625 c 4.31181,-0.151102 10.17182,0.722206 14.90625,3.27539 4.73442,2.553185 8.34155,6.762491 8.21679,13.339846 v 0.004 0.006 c 0.30749,6.30588 -3.06475,10.64823 -7.72265,13.39844 -4.65791,2.75022 -10.60028,3.88637 -15.36133,3.72461 l -0.01,0.26367 c 4.81036,0.16344 10.79072,-0.97575 15.50586,-3.75976 4.71258,-2.7825 8.16164,-7.23031 7.85352,-13.63086 v -0.004 c 0.12501,-6.67417 -3.56408,-10.990313 -8.35547,-13.574218 -4.79239,-2.584447 -10.68727,-3.461233 -15.04297,-3.308593 z"
       id="path3783"
       inkscape:connector-curvature="0" />
    <path
       style="color:#000000;font-style:normal;font-variant:normal;font-weight:normal;font-stretch:normal;font-size:medium;line-height:normal;font-family:sans-serif;font-variant-ligatures:normal;font-variant-position:normal;font-variant-caps:normal;font-variant-numeric:normal;font-variant-alternates:normal;font-feature-settings:normal;text-indent:0;text-align:start;text-decoration:none;text-decoration-line:none;text-decoration-style:solid;text-decoration-color:#000000;letter-spacing:normal;word-spacing:normal;text-transform:none;writing-mode:lr-tb;direction:ltr;text-orientation:mixed;dominant-baseline:auto;baseline-shift:baseline;text-anchor:start;white-space:normal;shape-padding:0;clip-rule:nonzero;display:inline;overflow:visible;visibility:visible;opacity:1;isolation:auto;mix-blend-mode:normal;color-interpolation:sRGB;color-interpolation-filters:linearRGB;solid-color:#000000;solid-opacity:1;vector-effect:none;fill:#ff0000;fill-opacity:0.98930484;fill-rule:nonzero;stroke:#000000;stroke-width:2;stroke-linecap:butt;stroke-linejoin:miter;stroke-miterlimit:4;stroke-dasharray:none;stroke-dashoffset:0;stroke-opacity:1;color-rendering:auto;image-rendering:auto;shape-rendering:auto;text-rendering:auto;enable-background:accumulate"
       d="m 101.5625,65.658203 c -8.913852,0.04193 -17.826981,0.576833 -24.541016,1.572266 -3.357017,0.497716 -6.16313,1.109081 -8.152343,1.83789 -0.994607,0.364405 -1.785417,0.757433 -2.341797,1.1875 -0.556381,0.430068 -0.887391,0.907208 -0.91211,1.429688 l 0.265625,0.01172 c 0.01983,-0.419085 0.284895,-0.829126 0.806641,-1.232422 0.521746,-0.403296 1.292194,-0.789645 2.271484,-1.148438 1.958581,-0.717586 4.754569,-1.327989 8.101563,-1.824218 6.693987,-0.99246 15.597836,-1.526478 24.501953,-1.56836 8.90412,-0.04188 17.80869,0.407473 24.50195,1.378906 3.34663,0.485717 6.14211,1.101897 8.09961,1.847657 0.97875,0.37288 1.74799,0.779554 2.26953,1.208984 0.52155,0.42943 0.79034,0.872741 0.81055,1.337891 l 0.26367,-0.01172 c -0.0243,-0.560225 -0.34967,-1.072971 -0.90625,-1.53125 -0.55658,-0.458279 -1.3486,-0.870873 -2.34375,-1.25 -1.99029,-0.758255 -4.79691,-1.376004 -8.15429,-1.863281 -6.71477,-0.974554 -15.62717,-1.424741 -24.54102,-1.382813 z"
       id="path3785"
       inkscape:connector-curvature="0" />
    <path
       style="color:#000000;font-style:normal;font-variant:normal;font-weight:normal;font-stretch:normal;font-size:medium;line-height:normal;font-family:sans-serif;font-variant-ligatures:normal;font-variant-position:normal;font-variant-caps:normal;font-variant-numeric:normal;font-variant-alternates:normal;font-feature-settings:normal;text-indent:0;text-align:start;text-decoration:none;text-decoration-line:none;text-decoration-style:solid;text-decoration-color:#000000;letter-spacing:normal;word-spacing:normal;text-transform:none;writing-mode:lr-tb;direction:ltr;text-orientation:mixed;dominant-baseline:auto;baseline-shift:baseline;text-anchor:start;white-space:normal;shape-padding:0;clip-rule:nonzero;display:inline;overflow:visible;visibility:visible;opacity:1;isolation:auto;mix-blend-mode:normal;color-interpolation:sRGB;color-interpolation-filters:linearRGB;solid-color:#000000;solid-opacity:1;vector-effect:none;fill-opacity:0.98930484;fill-rule:nonzero;stroke:#000000;stroke-width:2;stroke-linecap:butt;stroke-linejoin:miter;stroke-miterlimit:4;stroke-dasharray:none;stroke-dashoffset:0;stroke-opacity:1;color-rendering:auto;image-rendering:auto;shape-rendering:auto;text-rendering:auto;enable-background:accumulate;fill:#ff0000"
       d="m 98.867866,66.035761 c -7.775778,0.125042 -14.458759,0.53041 -19.74143,1.178739 -5.282673,0.64833 -9.16078,1.534552 -11.350728,2.644283 -0.642125,0.32539 -1.168818,0.718775 -1.488281,1.080556 -0.159734,0.18089 -0.27046,0.352309 -0.311092,0.523481 -0.04064,0.171175 0.01866,0.361754 0.174149,0.457853 0.04994,0.03087 0.08253,0.03693 0.144693,0.05581 0.06217,0.01888 0.143033,0.04122 0.241847,0.06666 0.197625,0.05088 0.466283,0.114776 0.788064,0.187587 0.643565,0.145619 1.498931,0.326877 2.411741,0.509014 5.453314,1.088112 12.667419,1.880944 20.707778,2.276861 13.352733,0.657505 29.116233,0.01062 38.782643,-1.594218 1.9444,-0.322813 3.91721,-0.723167 5.40691,-1.078487 0.74485,-0.177659 1.36861,-0.343746 1.81022,-0.484724 0.22081,-0.07049 0.39544,-0.134057 0.52194,-0.192754 0.0632,-0.02935 0.11442,-0.05662 0.15761,-0.08888 0.0432,-0.03227 0.0992,-0.07119 0.0992,-0.16795 0,-0.108328 -0.0482,-0.201885 -0.11576,-0.29869 -0.0676,-0.0968 -0.15957,-0.196969 -0.27285,-0.302824 -0.22655,-0.211709 -0.53755,-0.444807 -0.89659,-0.677995 -0.71806,-0.46637 -1.62574,-0.931235 -2.41432,-1.190106 -6.52616,-2.142389 -18.73997,-3.160154 -34.655764,-2.904217 z m 0.0047,0.267168 c 15.902154,-0.25572 28.112074,0.771475 34.567914,2.890779 0.75579,0.248108 1.65212,0.706223 2.3518,1.160653 0.34984,0.227214 0.65131,0.454139 0.85989,0.649057 0.10429,0.09746 0.1849,0.187037 0.23616,0.260448 0.0395,0.05651 0.0456,0.08652 0.0522,0.112139 -0.0206,0.01319 -0.0444,0.02788 -0.0868,0.04754 -0.10753,0.0499 -0.27536,0.112215 -0.49041,0.180866 -0.4301,0.137303 -1.05014,0.302824 -1.7911,0.479557 -1.48193,0.353465 -3.45081,0.752602 -5.38882,1.074354 -9.63151,1.599039 -25.39201,2.247689 -38.725805,1.591117 -8.030692,-0.395441 -15.235132,-1.187561 -20.668506,-2.271696 -0.910844,-0.181743 -1.764597,-0.36307 -2.405021,-0.507979 -0.320214,-0.07246 -0.587083,-0.135769 -0.780314,-0.185518 -0.09661,-0.02488 -0.175043,-0.04606 -0.230994,-0.06305 -0.05595,-0.01699 -0.100476,-0.03903 -0.08165,-0.02739 -0.06951,-0.04296 -0.07808,-0.07082 -0.05478,-0.168981 0.0233,-0.09816 0.108741,-0.246909 0.251664,-0.40876 0.285842,-0.323707 0.791395,-0.705993 1.408181,-1.018543 2.127112,-1.077889 5.993895,-1.970762 11.262879,-2.617412 5.268986,-0.646649 11.944574,-1.052258 19.713527,-1.177189 z"
       id="path3787"
       inkscape:connector-curvature="0" />
    <path
       style="color:#000000;font-style:normal;font-variant:normal;font-weight:normal;font-stretch:normal;font-size:medium;line-height:normal;font-family:sans-serif;font-variant-ligatures:normal;font-variant-position:normal;font-variant-caps:normal;font-variant-numeric:normal;font-variant-alternates:normal;font-feature-settings:normal;text-indent:0;text-align:start;text-decoration:none;text-decoration-line:none;text-decoration-style:solid;text-decoration-color:#000000;letter-spacing:normal;word-spacing:normal;text-transform:none;writing-mode:lr-tb;direction:ltr;text-orientation:mixed;dominant-baseline:auto;baseline-shift:baseline;text-anchor:start;white-space:normal;shape-padding:0;clip-rule:nonzero;display:inline;overflow:visible;visibility:visible;opacity:1;isolation:auto;mix-blend-mode:normal;color-interpolation:sRGB;color-interpolation-filters:linearRGB;solid-color:#000000;solid-opacity:1;vector-effect:none;fill-opacity:0.98930484;fill-rule:nonzero;stroke:#000000;stroke-width:2;stroke-linecap:butt;stroke-linejoin:miter;stroke-miterlimit:4;stroke-dasharray:none;stroke-dashoffset:0;stroke-opacity:1;color-rendering:auto;image-rendering:auto;shape-rendering:auto;text-rendering:auto;enable-background:accumulate;fill:#ff0000"
       d="m 98.315961,59.286819 c -8.102965,0.03671 -16.069563,0.440976 -22.747964,1.208712 -6.678404,0.767736 -12.063206,1.892988 -15.031641,3.39721 -0.70849,0.359019 -1.390499,0.877393 -1.901176,1.403014 -0.510678,0.525622 -0.863968,1.044226 -0.862997,1.486215 0.0018,0.795047 0.656651,1.630529 1.714624,2.415355 1.057974,0.784828 2.536677,1.518724 4.24987,2.067057 0.908939,0.29092 1.368123,0.440354 1.650545,0.462505 0.07061,0.0055 0.133001,0.0034 0.192754,-0.01499 0.05975,-0.01839 0.115991,-0.05957 0.149344,-0.110588 0.06671,-0.102042 0.05994,-0.203898 0.05994,-0.316775 0,-0.194498 0.117369,-0.426955 0.371554,-0.680064 0.254186,-0.253108 0.638295,-0.521025 1.132748,-0.786513 0.988907,-0.530982 2.417551,-1.054193 4.140832,-1.489316 7.939061,-2.004587 24.913346,-3.083155 39.183656,-2.480469 7.71273,0.325737 13.6369,0.853964 17.94103,1.613855 4.30412,0.759892 6.98618,1.762213 8.20208,2.978113 l 1.11208,1.112594 2.07377,-0.984953 c 1.24987,-0.593561 2.17912,-1.197325 2.79053,-1.810743 0.6114,-0.613415 0.90839,-1.247484 0.85369,-1.877404 -0.0547,-0.629922 -0.45618,-1.228801 -1.16685,-1.785421 -0.71067,-0.55662 -1.73611,-1.078891 -3.07888,-1.564762 -8.08658,-2.926066 -24.82361,-4.316047 -41.029543,-4.242636 z m 0.0016,0.267169 c 16.189719,-0.07334 32.936289,1.331605 40.937039,4.226615 1.32594,0.479782 2.32891,0.994934 3.00498,1.524455 0.67607,0.529519 1.01938,1.065906 1.06557,1.597835 0.0462,0.531929 -0.19975,1.086167 -0.77721,1.665531 -0.57747,0.579363 -1.48296,1.172657 -2.7156,1.758031 l -1.90324,0.903822 -0.97927,-0.97927 c -1.30125,-1.301247 -4.01963,-2.288508 -8.34419,-3.052008 -4.32457,-0.763501 -10.25703,-1.291982 -17.97617,-1.617991 -14.292599,-0.603626 -31.255689,0.467124 -39.260134,2.488221 -1.738527,0.43897 -3.183022,0.966062 -4.201811,1.513086 -0.509394,0.273513 -0.912939,0.551884 -1.195276,0.833025 -0.282337,0.281138 -0.450102,0.571354 -0.450102,0.869198 0,0.10667 -0.01498,0.168153 -0.01654,0.170532 -7.78e-4,0.0012 0.0067,-0.0019 -0.0047,0.0016 -0.01131,0.0035 -0.04188,0.0076 -0.0925,0.0036 -0.202489,-0.01588 -0.682289,-0.159901 -1.590601,-0.450619 -1.689677,-0.540806 -3.145647,-1.2655 -4.171839,-2.026748 -1.026192,-0.761252 -1.605185,-1.558896 -1.606619,-2.201418 -6.16e-4,-0.280461 0.298709,-0.796002 0.787548,-1.299144 0.488839,-0.503145 1.153049,-1.00811 1.83038,-1.351338 2.8996,-1.46934 8.276185,-2.603625 14.941206,-3.369821 6.665023,-0.766199 14.624166,-1.170493 22.719027,-1.207161 z"
       id="path3791"
       inkscape:connector-curvature="0" />
    <path
       style="color:#000000;font-style:normal;font-variant:normal;font-weight:normal;font-stretch:normal;font-size:medium;line-height:normal;font-family:sans-serif;font-variant-ligatures:normal;font-variant-position:normal;font-variant-caps:normal;font-variant-numeric:normal;font-variant-alternates:normal;font-feature-settings:normal;text-indent:0;text-align:start;text-decoration:none;text-decoration-line:none;text-decoration-style:solid;text-decoration-color:#000000;letter-spacing:normal;word-spacing:normal;text-transform:none;writing-mode:lr-tb;direction:ltr;text-orientation:mixed;dominant-baseline:auto;baseline-shift:baseline;text-anchor:start;white-space:normal;shape-padding:0;clip-rule:nonzero;display:inline;overflow:visible;visibility:visible;opacity:1;isolation:auto;mix-blend-mode:normal;color-interpolation:sRGB;color-interpolation-filters:linearRGB;solid-color:#000000;solid-opacity:1;vector-effect:none;fill-opacity:0.98930484;fill-rule:nonzero;stroke:#000000;stroke-width:2;stroke-linecap:butt;stroke-linejoin:miter;stroke-miterlimit:4;stroke-dasharray:none;stroke-dashoffset:0;stroke-opacity:1;color-rendering:auto;image-rendering:auto;shape-rendering:auto;text-rendering:auto;enable-background:accumulate;fill:#ff0000"
       d="m 143.83205,77.878965 v 4.383196 4.356841 l 3.26078,0.327628 c 10.64505,1.06956 17.50382,5.57997 19.31923,12.644189 0.49941,1.943321 0.51843,6.727861 0.0382,8.531261 -0.9268,3.48069 -3.71882,6.985 -7.24968,9.08265 -3.62506,2.1536 -9.32223,3.74499 -13.39918,3.74499 h -1.96939 v 4.27674 c 0,1.14043 0.0152,2.17699 0.0398,2.93006 0.0123,0.37653 0.0269,0.682 0.0434,0.89607 0.008,0.10703 0.0165,0.19034 0.0264,0.25269 0.005,0.0312 0.01,0.0561 0.0181,0.0827 0.004,0.0133 0.009,0.0269 0.0217,0.0475 0.0132,0.0206 0.0473,0.0672 0.11937,0.0672 0.0356,0 0.0519,-0.003 0.0966,-0.009 0.0447,-0.005 0.10476,-0.0133 0.17931,-0.0232 0.14912,-0.02 0.35509,-0.0488 0.60359,-0.0842 0.49699,-0.071 1.16357,-0.16887 1.87998,-0.27647 13.5143,-2.02986 24.03107,-8.9561 27.35544,-18.07229 2.02566,-5.55482 1.89246,-12.196654 -0.35036,-16.981387 -1.92742,-4.111861 -4.75748,-7.198265 -9.09868,-9.929109 -5.05727,-3.181297 -11.80994,-5.320945 -19.11717,-6.063713 z m 0.26716,0.29559 1.52343,0.15503 c 7.2723,0.739217 13.98976,2.870991 19.00193,6.023922 4.3088,2.710463 7.09232,5.748949 8.99894,9.816455 2.20406,4.70205 2.34186,11.289588 0.34106,16.776238 -3.27705,8.98642 -13.69801,15.88008 -27.14408,17.89968 -0.71586,0.10752 -1.38184,0.20513 -1.87792,0.27595 -0.24803,0.0354 -0.45378,0.064 -0.60151,0.0837 -0.0587,0.008 -0.10029,0.0132 -0.13953,0.0181 -0.007,-0.0489 -0.013,-0.10615 -0.0196,-0.19172 -0.0159,-0.20668 -0.0307,-0.50986 -0.0429,-0.88419 -0.0245,-0.74865 -0.0398,-1.78322 -0.0398,-2.92127 v -4.00905 h 1.70223 c 4.14602,0 9.85494,-1.59608 13.5356,-3.78272 3.58983,-2.13267 6.42157,-5.67769 7.37113,-9.24388 0.50978,-1.91454 0.48724,-6.62537 -0.0372,-8.666137 -1.84901,-7.194986 -8.84351,-11.768264 -19.55178,-12.844176 l -3.01997,-0.303343 v -4.114993 z"
       id="path3793"
       inkscape:connector-curvature="0" />
    <path
       style="opacity:1;fill:none;fill-opacity:0.98930484;stroke:#000000;stroke-width:7.63579893;stroke-miterlimit:4;stroke-dasharray:none;stroke-opacity:1"
       d="m 337.23707,567.15881 c -50.04601,-2.95723 -83.10488,-8.55561 -101.01526,-17.10652 -7.80847,-3.72799 -9.38183,-4.8544 -11.91565,-8.53074 -1.60091,-2.32278 -1.72141,-12.02917 -1.72141,-138.66397 V 266.69123 l 4.27378,2.18031 c 15.32435,7.81791 44.27832,13.75015 86.63995,17.75125 24.0076,2.26755 112.12234,2.58582 135.86552,0.49076 40.68007,-3.58956 75.67593,-10.85966 85.54306,-17.77087 1.25657,-0.88013 2.63809,-1.60024 3.07006,-1.60024 0.43196,0 0.78538,61.28172 0.78538,136.1816 v 136.18161 l -2.77792,2.60582 c -10.64693,9.9873 -43.75131,17.8278 -95.20688,22.54893 -16.59684,1.52278 -87.80298,2.82834 -103.54063,1.89841 z"
       id="path4961"
       inkscape:connector-curvature="0"
       transform="scale(0.26458333)" />
    <path
       style="opacity:1;fill:#ac9393;fill-opacity:0.98930485;stroke:none;stroke-width:7.71215677;stroke-miterlimit:4;stroke-dasharray:none;stroke-opacity:1"
       d="m 327.13554,562.68311 c -52.965,-4.29391 -85.84821,-11.36072 -97.47972,-20.94899 l -2.52538,-2.08176 -0.27776,-132.92451 c -0.15277,-73.10847 -0.0768,-132.9245 0.16875,-132.9245 0.24558,0 5.14354,1.56055 10.88436,3.46787 18.86588,6.268 52.1596,11.68892 84.72039,13.79428 25.90664,1.6751 126.1787,0.63311 142.39519,-1.47972 28.63854,-3.73128 51.19538,-8.31369 62.98868,-12.79612 2.85814,-1.08632 5.53754,-1.97536 5.95423,-1.97564 0.41668,-2.8e-4 0.75451,59.43434 0.75071,132.07693 l -0.007,132.07745 -3.27609,2.2227 c -13.88175,9.41821 -53.29842,17.64266 -97.98867,20.44576 -22.33633,1.401 -93.31547,2.09955 -106.30778,1.04625 z"
       id="path5097"
       inkscape:connector-curvature="0"
       transform="scale(0.26458333)" />
    <path
       style="opacity:1;fill:#ac9393;fill-opacity:0.98930485;stroke:none;stroke-width:7.71215677;stroke-miterlimit:4;stroke-dasharray:none;stroke-opacity:1"
       d="m 548.86403,472.9987 v -11.00793 l 8.83883,-0.59449 c 12.9275,-0.86949 27.22882,-4.92066 40.50105,-11.47282 9.43408,-4.65737 12.73661,-6.93012 18.68782,-12.86073 7.94956,-7.92202 13.96062,-17.32353 16.54609,-25.87863 2.52829,-8.36591 2.19686,-29.64872 -0.59776,-38.3858 -8.52884,-26.66444 -35.00088,-44.16825 -73.58049,-48.6528 l -10.39554,-1.20839 v -11.55129 -11.55129 l 5.80837,0.69021 c 36.89994,4.38483 71.6499,20.63336 88.03747,41.16493 13.02459,16.31817 18.42387,36.93474 15.31376,58.4739 -2.6311,18.22166 -9.56167,32.26757 -22.34492,45.28557 -19.09191,19.44251 -45.43706,31.47133 -83.02661,37.90876 l -3.78807,0.64873 z"
       id="path5099"
       inkscape:connector-curvature="0"
       transform="scale(0.26458333)" />
    <path
       style="opacity:1;fill:#ac9393;fill-opacity:0.98930485;stroke:none;stroke-width:7.71215677;stroke-miterlimit:4;stroke-dasharray:none;stroke-opacity:1"
       d="m 238.23431,263.06818 c -6.95568,-2.82988 -13.2091,-6.91595 -14.08747,-9.20496 -1.3818,-3.60091 6.19911,-8.70723 18.13589,-12.2159 30.14521,-8.8608 80.24511,-12.90993 148.39905,-11.99378 50.80757,0.68297 76.42443,2.67913 107.43567,8.37177 22.12356,4.06116 39.6349,10.71799 39.6349,15.06698 0,2.14128 -3.8381,5.38041 -10.22536,8.62959 l -5.67966,2.88924 -2.22939,-2.37307 c -2.90795,-3.09536 -12.09744,-7.17494 -21.68609,-9.6273 -35.91401,-9.18526 -126.87563,-11.8515 -188.47398,-5.5245 -33.56459,3.44754 -53.45513,8.54583 -62.26625,15.9599 l -2.93703,2.47135 z"
       id="path5101"
       inkscape:connector-curvature="0"
       transform="scale(0.26458333)" />
    <path
       style="opacity:1;fill:#803300;fill-opacity:0.98930485;stroke:none;stroke-width:7.71215677;stroke-miterlimit:4;stroke-dasharray:none;stroke-opacity:1"
       d="m 357.44012,279.25924 c -32.25489,-1.21545 -61.96039,-3.9023 -83.7807,-7.57793 -15.84845,-2.66966 -16.55837,-3.15878 -8.48449,-5.84559 23.87199,-7.94409 72.93521,-11.83087 137.72205,-10.91032 54.45929,0.77381 89.14625,4.68154 103.01334,11.60516 2.74948,1.37277 2.83637,1.56534 1.01015,2.23872 -7.20106,2.65524 -42.46345,7.28668 -68.66815,9.01901 -16.69053,1.10337 -66.50478,2.0101 -80.8122,1.47095 z"
       id="path5103"
       inkscape:connector-curvature="0"
       transform="scale(0.26458333)" />
  </g>
</svg>
